<svg xmlns="http://www.w3.org/2000/svg" x="0px" y="0px" viewBox="0 0 450 450">
	<path d="M281.213,0H60v450h330V108.787L281.213,0z M290,51.213L338.787,100H290V51.213z M90,420V30h170v100h100v290H90z"/>
<!--	<path d="M 142.571 262.423 C 155.84 262.423 162.898 256.961 168.568 252.572 C 173.352 248.869 176.513 246.423 183.915 246.423 C 191.318 246.423 194.479 248.869 199.263 252.572 C 204.014 256.961 211.071 262.423 224.342 262.423 C 237.612 262.423 244.668 256.961 250.337 252.572 C 255.122 248.869 258.282 246.423 265.685 246.423 C 273.09 246.423 276.251 248.869 281.036 252.573 C 286.707 256.961 293.765 262.423 307.036 262.423 C 320.306 262.423 327.364 256.961 333.035 252.572 C 337.82 248.869 340.981 246.423 348.385 246.423 L 348.385 226.423 C 335.115 226.423 328.057 231.885 322.386 236.274 C 317.601 239.977 314.44 242.423 307.036 242.423 C 299.632 242.423 296.47 239.977 291.685 236.274 C 286.014 231.885 278.957 226.423 265.685 226.423 C 252.416 226.423 245.358 231.885 239.688 236.274 C 234.903 239.977 231.744 242.423 224.342 242.423 C 216.939 242.423 213.778 239.977 208.993 236.274 C 203.323 231.885 196.266 226.423 182.996 226.423 C 169.725 226.423 162.669 231.885 156.999 236.274 C 152.215 239.977 149.054 242.423 141.652 242.423 C 134.25 242.423 131.09 239.977 126.306 236.274 C 120.636 231.885 113.578 226.423 100.309 226.423 L 100.309 246.423 C 107.711 246.423 110.872 248.869 115.656 252.572 C 121.326 256.961 128.382 262.423 141.652 262.423 L 142.571 262.423 Z" />-->
<!--	<path d="M 154.544 328.268 C 165.419 328.268 171.202 322.349 175.85 317.593 C 179.77 313.581 182.36 310.93 188.428 310.93 C 194.495 310.93 197.085 313.581 201.007 317.593 C 204.9 322.349 210.683 328.268 221.561 328.268 C 232.436 328.268 238.218 322.349 242.865 317.593 C 246.786 313.581 249.377 310.93 255.445 310.93 C 261.514 310.93 264.104 313.581 268.024 317.594 C 272.673 322.349 278.458 328.268 289.334 328.268 C 300.21 328.268 305.994 322.349 310.642 317.593 C 314.564 313.581 317.155 310.93 323.222 310.93 L 323.222 289.259 C 312.346 289.259 306.563 295.177 301.914 299.933 C 297.993 303.946 295.401 306.596 289.334 306.596 C 283.266 306.596 280.675 303.946 276.754 299.933 C 272.105 295.177 266.322 289.259 255.445 289.259 C 244.569 289.259 238.784 295.177 234.138 299.933 C 230.215 303.946 227.627 306.596 221.561 306.596 C 215.493 306.596 212.903 303.946 208.981 299.933 C 204.334 295.177 198.55 289.259 187.674 289.259 C 176.798 289.259 171.015 295.177 166.369 299.933 C 162.446 303.946 159.856 306.596 153.79 306.596 C 147.724 306.596 145.135 303.946 141.212 299.933 C 136.566 295.177 130.781 289.259 119.907 289.259 L 119.907 310.93 C 125.972 310.93 128.563 313.581 132.486 317.593 C 137.132 322.349 142.915 328.268 153.79 328.268 L 154.544 328.268 Z" />-->
	<text style="font-family: Arial, sans-serif; font-size: 118px; font-weight: 700; white-space: pre;" x="119.905" y="274.873">abc</text>
	<path xmlns="http://www.w3.org/2000/svg" d="M 295.748 319.074 C 288.432 319.074 284.657 312.176 281.327 306.089 C 278.319 300.592 275.945 296.25 270.932 296.25 C 265.921 296.25 263.606 300.592 260.675 306.088 C 257.429 312.176 253.75 319.074 246.433 319.074 C 239.116 319.074 235.342 312.176 232.012 306.088 C 229.005 300.592 226.629 296.25 221.618 296.25 C 216.607 296.25 214.292 300.592 211.362 306.088 C 208.116 312.176 204.437 319.074 197.12 319.074 C 189.804 319.074 186.031 312.176 182.701 306.088 C 179.695 300.592 177.319 296.25 172.309 296.25 C 167.297 296.25 164.983 300.592 162.051 306.088 C 158.806 312.176 155.128 319.074 147.811 319.074 C 140.494 319.074 136.72 312.176 133.388 306.088 C 130.382 300.592 128.006 296.25 122.995 296.25 C 121.358 296.25 120.01 293.563 119.988 290.251 C 119.965 286.936 121.275 284.251 122.913 284.251 C 130.229 284.251 134.003 291.15 137.334 297.236 C 140.341 302.733 142.717 307.075 147.727 307.075 C 152.739 307.075 155.054 302.733 157.984 297.236 C 161.23 291.15 164.91 284.251 172.225 284.251 C 179.542 284.251 183.315 291.15 186.646 297.237 C 189.652 302.733 192.026 307.075 197.036 307.075 C 202.049 307.075 204.363 302.733 207.295 297.236 C 210.539 291.15 214.219 284.251 221.535 284.251 C 228.853 284.251 232.626 291.15 235.957 297.236 C 238.964 302.733 241.338 307.075 246.35 307.075 C 251.362 307.075 253.677 302.733 256.607 297.236 C 259.853 291.15 263.532 284.251 270.85 284.251 C 278.166 284.251 281.941 291.15 285.271 297.236 C 288.279 302.733 290.653 307.075 295.666 307.075 C 300.678 307.075 302.993 302.733 305.924 297.236 C 309.171 291.15 312.85 284.251 320.167 284.251 C 321.805 284.251 323.153 286.936 323.176 290.251 C 323.199 293.563 321.888 296.25 320.251 296.25 C 315.239 296.25 312.924 300.592 309.991 306.089 C 306.745 312.176 303.067 319.074 295.748 319.074 Z" style="" transform="matrix(0.999952, 0.009783, -0.009783, 0.999952, 2.961768, -2.153301)"></path>
</svg>
