<svg xmlns="http://www.w3.org/2000/svg" x="0px" y="0px" viewBox="0 0 450 450">
<!--	<path d="M 142.571 262.423 C 155.84 262.423 162.898 256.961 168.568 252.572 C 173.352 248.869 176.513 246.423 183.915 246.423 C 191.318 246.423 194.479 248.869 199.263 252.572 C 204.014 256.961 211.071 262.423 224.342 262.423 C 237.612 262.423 244.668 256.961 250.337 252.572 C 255.122 248.869 258.282 246.423 265.685 246.423 C 273.09 246.423 276.251 248.869 281.036 252.573 C 286.707 256.961 293.765 262.423 307.036 262.423 C 320.306 262.423 327.364 256.961 333.035 252.572 C 337.82 248.869 340.981 246.423 348.385 246.423 L 348.385 226.423 C 335.115 226.423 328.057 231.885 322.386 236.274 C 317.601 239.977 314.44 242.423 307.036 242.423 C 299.632 242.423 296.47 239.977 291.685 236.274 C 286.014 231.885 278.957 226.423 265.685 226.423 C 252.416 226.423 245.358 231.885 239.688 236.274 C 234.903 239.977 231.744 242.423 224.342 242.423 C 216.939 242.423 213.778 239.977 208.993 236.274 C 203.323 231.885 196.266 226.423 182.996 226.423 C 169.725 226.423 162.669 231.885 156.999 236.274 C 152.215 239.977 149.054 242.423 141.652 242.423 C 134.25 242.423 131.09 239.977 126.306 236.274 C 120.636 231.885 113.578 226.423 100.309 226.423 L 100.309 246.423 C 107.711 246.423 110.872 248.869 115.656 252.572 C 121.326 256.961 128.382 262.423 141.652 262.423 L 142.571 262.423 Z" />-->
<!--	<path d="M 154.544 328.268 C 165.419 328.268 171.202 322.349 175.85 317.593 C 179.77 313.581 182.36 310.93 188.428 310.93 C 194.495 310.93 197.085 313.581 201.007 317.593 C 204.9 322.349 210.683 328.268 221.561 328.268 C 232.436 328.268 238.218 322.349 242.865 317.593 C 246.786 313.581 249.377 310.93 255.445 310.93 C 261.514 310.93 264.104 313.581 268.024 317.594 C 272.673 322.349 278.458 328.268 289.334 328.268 C 300.21 328.268 305.994 322.349 310.642 317.593 C 314.564 313.581 317.155 310.93 323.222 310.93 L 323.222 289.259 C 312.346 289.259 306.563 295.177 301.914 299.933 C 297.993 303.946 295.401 306.596 289.334 306.596 C 283.266 306.596 280.675 303.946 276.754 299.933 C 272.105 295.177 266.322 289.259 255.445 289.259 C 244.569 289.259 238.784 295.177 234.138 299.933 C 230.215 303.946 227.627 306.596 221.561 306.596 C 215.493 306.596 212.903 303.946 208.981 299.933 C 204.334 295.177 198.55 289.259 187.674 289.259 C 176.798 289.259 171.015 295.177 166.369 299.933 C 162.446 303.946 159.856 306.596 153.79 306.596 C 147.724 306.596 145.135 303.946 141.212 299.933 C 136.566 295.177 130.781 289.259 119.907 289.259 L 119.907 310.93 C 125.972 310.93 128.563 313.581 132.486 317.593 C 137.132 322.349 142.915 328.268 153.79 328.268 L 154.544 328.268 Z" />-->
	<text style="font-family: Arial, sans-serif; font-size: 250px; font-weight: 700; white-space: pre;" x="9.605" y="277.045">abc</text>
	<path d="M 376.625 358.523 C 361.547 358.523 353.767 348.312 346.904 339.302 C 340.704 331.166 335.811 324.739 325.48 324.739 C 315.153 324.739 310.382 331.166 304.34 339.301 C 297.652 348.312 290.069 358.523 274.99 358.523 C 259.908 358.523 252.132 348.312 245.269 339.301 C 239.072 331.166 234.173 324.739 223.847 324.739 C 213.518 324.739 208.748 331.166 202.709 339.301 C 196.019 348.312 188.438 358.523 173.357 358.523 C 158.279 358.523 150.504 348.312 143.642 339.301 C 137.445 331.166 132.549 324.739 122.222 324.739 C 111.895 324.739 107.125 331.166 101.081 339.301 C 94.395 348.312 86.815 358.523 71.734 358.523 C 56.656 358.523 48.876 348.312 42.01 339.301 C 35.814 331.166 30.918 324.739 20.59 324.739 C 17.216 324.739 14.439 320.761 14.393 315.859 C 14.347 310.952 17.045 306.978 20.422 306.978 C 35.499 306.978 43.278 317.189 50.142 326.198 C 56.34 334.335 61.236 340.762 71.561 340.762 C 81.889 340.762 86.661 334.335 92.699 326.198 C 99.39 317.189 106.974 306.978 122.051 306.978 C 137.129 306.978 144.906 317.189 151.77 326.199 C 157.967 334.335 162.859 340.762 173.184 340.762 C 183.517 340.762 188.286 334.335 194.327 326.198 C 201.013 317.189 208.597 306.978 223.675 306.978 C 238.757 306.978 246.535 317.189 253.4 326.198 C 259.596 334.335 264.489 340.762 274.817 340.762 C 285.147 340.762 289.919 334.335 295.956 326.198 C 302.648 317.189 310.229 306.978 325.31 306.978 C 340.389 306.978 348.17 317.189 355.032 326.198 C 361.232 334.335 366.124 340.762 376.455 340.762 C 386.784 340.762 391.556 334.335 397.597 326.198 C 404.288 317.189 411.871 306.978 426.951 306.978 C 430.327 306.978 433.106 310.952 433.153 315.859 C 433.201 320.761 430.498 324.739 427.126 324.739 C 416.795 324.739 412.024 331.166 405.978 339.302 C 399.29 348.312 391.709 358.523 376.625 358.523 Z" style="" transform="matrix(0.999952, 0.009783, -0.009783, 0.999952, 3.266007, -2.173248)" />
</svg>